<svg id="Layer_1" version="1.1" viewBox="0 0 96 96" xml:space="preserve" xmlns="http://www.w3.org/2000/svg" enable-background="new 0 0 96 96"><path d="M90 69.2c0-2.3-1.9-4.2-4.2-4.2H10.2C7.9 65 6 66.9 6 69.2v1.6c0 2.3 1.9 4.2 4.2 4.2h75.6c2.3 0 4.2-1.9 4.2-4.2v-1.6zM15 75l5-10M25 75l5-10M35 75l5-10M45 75l5-10M55 75l5-10M65 75l5-10M75 75l5-10" fill="none" stroke="#000000" stroke-width="4" stroke-linecap="round" stroke-miterlimit="10" class="stroke-010000"></path><path d="M14 78v6h8v-6M74 78v6h8v-6" fill="none" stroke="#000000" stroke-width="4" stroke-linejoin="round" stroke-miterlimit="10" class="stroke-010000"></path><path d="M60 45.9h27v12H9v-12h27" fill="none" stroke="#000000" stroke-width="3.9497" stroke-linejoin="round" stroke-miterlimit="10" class="stroke-010000"></path><path d="M9.5 46.9h27l2 4h20l2-4h27M15 46.9v10M81 46.9v10M35.5 46l2-4h22l2 4" fill="none" stroke="#000000" stroke-width="2" stroke-linejoin="round" stroke-miterlimit="10" class="stroke-010000"></path><path d="M54 45.7c0 .7-.6 1.3-1.3 1.3h-8.4c-.7 0-1.3-.6-1.3-1.3v-1.4c0-.7.6-1.3 1.3-1.3h8.4c.7 0 1.3.6 1.3 1.3v1.4z" fill="none" stroke="#000000" stroke-width="1.9935" stroke-linejoin="round" stroke-miterlimit="10" class="stroke-010000"></path><path d="M53.8 9.5c1.8.5 3.5 1.5 4.9 2.9 4.5 4.5 4.5 11.8 0 16.3-2.3 2.3-5.2 3.4-8.2 3.4M42.2 31.2c-1.8-.5-3.5-1.5-4.9-2.9-4.5-4.5-4.5-11.8 0-16.3 2.3-2.3 5.2-3.4 8.2-3.4M41.4 25.1l2.5 9.5M43.4 33l-7.8 2M54.6 16.9l-2.5-9.5M52.6 9l7.8-2" fill="none" stroke="#000000" stroke-width="4" stroke-miterlimit="10" class="stroke-010000"></path></svg>